<?xml version="1.0" encoding="UTF-8" standalone="no" ?>

<svg xmlns="http://www.w3.org/2000/svg" xmlns:xlink="http://www.w3.org/1999/xlink" version="1.1" width="1080" height="1080" viewBox="0 0 1080 1080" xml:space="preserve">
<desc>Created with Fabric.js 5.2.4</desc>
<defs>
</defs>
<g transform="matrix(1 0 0 1 540 540)" id="3fae743a-e6c5-4fa6-9263-76030eeeeca2">
<rect style="stroke: none; stroke-width: 1; stroke-dasharray: none; stroke-linecap: butt; stroke-dashoffset: 0; stroke-linejoin: miter; stroke-miterlimit: 4; fill: rgb(255,255,255); fill-rule: nonzero; opacity: 1; visibility: hidden;" vector-effect="non-scaling-stroke" x="-540" y="-540" rx="0" ry="0" width="1080" height="1080"></rect>
</g>
<g transform="matrix(1 0 0 1 540 540)" id="0820d768-a318-4674-abb0-854e3de25256">
</g>
<g transform="matrix(2.94 0 0 2.94 540 540)">
<g style="">
&#x9;&#x9;<g transform="matrix(1 0 0 1 18.95 -24.28)" id="Oval">
<path style="stroke: none; stroke-width: 1; stroke-dasharray: none; stroke-linecap: butt; stroke-dashoffset: 0; stroke-linejoin: miter; stroke-miterlimit: 4; fill: rgb(255,121,164); fill-rule: evenodd; opacity: 1;" vector-effect="non-scaling-stroke" transform=" translate(-283.45, -175.72)" d="M 287.330654 291.80736 C 351.589089 300.832155 397.148097 241.680205 397.148097 175.457169 C 397.148097 109.234134 351.589089 53.5339366 287.330654 59.1069793 C 223.072218 64.6800221 169.746105 119.508095 169.746105 175.280076 C 169.746105 231.052058 223.072218 282.782564 287.330654 291.80736 Z" stroke-linecap="round"></path>
</g>
&#x9;&#x9;<g transform="matrix(0.64 0.77 -0.77 0.64 0 0)" id="Shape">
<path style="stroke: none; stroke-width: 1; stroke-dasharray: none; stroke-linecap: butt; stroke-dashoffset: 0; stroke-linejoin: miter; stroke-miterlimit: 4; fill: rgb(52,49,49); fill-rule: nonzero; opacity: 1;" vector-effect="non-scaling-stroke" transform=" translate(-140.5, -122)" d="M 210.751736 244 L 70.2465286 244 L 0 122 L 70.2465286 0 L 210.751736 0 L 281 122.00058 L 210.751736 244 Z M 76.315052 233.466666 L 204.684948 233.466666 L 268.869896 122.00058 L 204.684948 10.533334 L 76.315052 10.533334 L 12.1301041 122 L 76.315052 233.466666 Z" stroke-linecap="round"></path>
</g>
</g>
</g>
</svg>